<svg version="1.1" xmlns="http://www.w3.org/2000/svg" xmlns:xlink="http://www.w3.org/1999/xlink" width="642.64264" height="404.65468" viewBox="0,0,642.64264,404.65468"><g transform="translate(55.29726,30.21021)"><g stroke="none" stroke-width="0" stroke-miterlimit="10"><path d="M-6.99697,361.68168v-391.89189h487.98799v391.89189z" fill="#00ceff"/><path d="M123.33176,310.30438l-92.75466,-120.41832l11.09116,-8.54319l92.75466,120.41833z" fill="#ffffff"/><path d="M27.30103,288.73931l110.81552,-104.03808l9.58245,10.20669l-110.81551,104.03808z" fill="#ffffff"/><path d="M587.34539,329.4144v45.03007h-642.64264v-45.03007z" fill="#00d01d"/><path d="M19.50001,332.82362v-160h31v160z" fill="#706c6c"/><path d="M118.50001,335.82362v-162h34v162z" fill="#706c6c"/><path d="M153.16456,232.70764l-132.05293,1.50024l-0.27616,-26.26828l132.05294,-1.50025z" fill="#706c6c"/><path d="M147.16456,298.4375l-127.06337,1.77038l-0.26573,-30.99815l127.06337,-1.77038z" fill="#706c6c"/><path d="M244.50001,330.82362c0,0 -11.33848,-154.57498 40,-238c51.33848,-83.42502 56.50741,-41.65616 89,9c32.49259,50.65616 32,229 32,229z" fill="#615858"/><path d="M207.50001,293.82362l18.06452,-28l21.93549,-34v62z" fill="#ff0000"/><path d="M400.50001,296.82362v-62l23.03226,34l18.96774,28z" fill="#ff0000"/><path d="M451.66668,328.82362v-306h23.66667v306z" fill="#e7dada"/><path d="M250.50001,121.82362l77,-84l2,-1l75,85z" fill="#c32828"/><path d="M348.50001,171.32362c0,15.74012 -11.19288,28.5 -25,28.5c-13.80712,0 -25,-12.75988 -25,-28.5c0,-15.74012 11.19288,-28.5 25,-28.5c13.80712,0 25,12.75988 25,28.5z" fill="#2999c2"/><path d="M300.66668,206.82362v-17h172.66667v17z" fill="#d6d6d6"/><path d="M338.66668,84.82362v-17h132.66667v17z" fill="#d6d6d6"/><g fill="#e8dada"><g><path d="M439.02289,88.82362v-6h35.47713v6z"/><path d="M439.02289,106.82362v-6h35.47713v6z"/><path d="M438.25164,126.82362v-6h35.47713v6z"/><path d="M439.02289,71.82362v-6h35.47713v6z"/><path d="M436.70916,145.82362v-6h35.47713v6z"/></g><g><path d="M437.4804,179.82362v-6h35.47713v6z"/><path d="M437.4804,197.82362v-6h35.47713v6z"/><path d="M436.70916,217.82362v-6h35.47713v6z"/><path d="M437.4804,162.82361v-6h35.47713v6z"/><path d="M435.16668,236.82362v-6h35.47713v6z"/></g></g><g fill="#e8dada"><path d="M437.02288,272.15695v-6h35.47713v6z"/><path d="M437.02288,290.15695v-6h35.47713v6z"/><path d="M436.25164,310.15695v-6h35.47713v6z"/><path d="M437.02288,255.15695v-6h35.47713v6z"/><path d="M434.70916,329.15695v-6h35.47713v6z"/></g></g></g></svg>