<svg version="1.1" xmlns="http://www.w3.org/2000/svg" xmlns:xlink="http://www.w3.org/1999/xlink" width="726.80965" height="414.75284" viewBox="0,0,726.80965,414.75284"><g transform="translate(207.82429,41.72329)"><g stroke-miterlimit="10"><path d="M-207.82429,160.27213v-1.55683h1.55682v1.55683z" fill="#bababa" stroke="none" stroke-width="0"/><g fill="#bababa" stroke="none" stroke-width="0"><path d=""/><path d=""/><path d=""/><path d=""/><path d=""/></g><path d="M-22.78882,373.02955v-385.31353h541.77418v385.31353z" fill="#326e84" stroke="none" stroke-width="NaN"/><path d="M-4.7217,363.28124v-363.51802h489.62063v363.51802z" fill="#7f7f7f" stroke="none" stroke-width="0"/><path d="M434.87387,55.99553v-33.92969h40.24829v33.92969z" fill="#326e84" stroke="none" stroke-width="NaN"/><path d="M330.92932,57.69331v-33.92969h40.24829v33.92969z" fill="#326e84" stroke="none" stroke-width="NaN"/><path d="M329.96931,224.48236v-33.92969h40.24829v33.92969z" fill="#326e84" stroke="none" stroke-width="NaN"/><path d="M434.82719,226.43792v-33.92969h40.24829v33.92969z" fill="#326e84" stroke="none" stroke-width="NaN"/><g fill="#000000" stroke="none" stroke-width="0"><path d="M309.22005,338.98478v-161.19019h6.24383v161.19019z"/><path d="M341.13869,338.42948v-161.19018h6.24382v161.19018z"/><path d="M372.24332,338.93078v-161.19019h6.24382v161.19019z"/><path d="M285.21161,200.40069v-6.33954h118.84527v6.33954z"/><path d="M285.79092,245.63094v-6.33954h118.84527v6.33954z"/><path d="M287.18423,289.10021v-6.33954h118.84527v6.33954z"/><path d="M286.54252,333.97826v-6.33954h118.84527v6.33954z"/></g><path d="M401.77481,356.82323v-362.73961h20.2387v362.73961z" fill="#242424" stroke="none" stroke-width="0"/><path d="M265.10397,357.93117v-362.73961h20.2387v362.73961z" fill="#242424" stroke="none" stroke-width="0"/><path d="M-4.55583,364.60734v-26.46598h489.62064v26.46598z" fill="#5c5c5c" stroke="none" stroke-width="0"/><path d="M-4.10695,178.23753v-26.46598h489.62064v26.46598z" fill="#5c5c5c" stroke="none" stroke-width="0"/><path d="M227.08117,359.60734v-361.9612h38.14215v361.9612z" fill="#323232" stroke="none" stroke-width="0"/><path d="M302.50748,152.31657v-143.28962h4.67047v143.28962z" fill="#000000" stroke="none" stroke-width="0"/><path d="M326.38306,151.82294v-143.28961h4.67046v143.28961z" fill="#000000" stroke="none" stroke-width="0"/><path d="M349.64975,152.26857v-143.28962h4.67046v143.28962z" fill="#000000" stroke="none" stroke-width="0"/><path d="M284.54885,29.1226v-5.63552h117.21123v5.63552z" fill="#000000" stroke="none" stroke-width="0"/><path d="M284.98218,69.32991v-5.63551h116.90679v5.63551z" fill="#000000" stroke="none" stroke-width="0"/><path d="M286.0244,107.97181v-5.63551h115.68901v5.63551z" fill="#000000" stroke="none" stroke-width="0"/><path d="M285.54439,147.86604v-5.63551h116.2979v5.63551z" fill="#000000" stroke="none" stroke-width="0"/><path d="M-10.0047,9.65184v-51.37513h512.05798v51.37514z" fill="#323232" stroke="none" stroke-width="0"/><g fill="#000000" stroke="none" stroke-width="0"><path d="M438.51928,337.63812v-159.36979h4.67047v159.36979z"/><path d="M462.39485,337.08909v-159.36979h4.67047v159.36979z"/><path d="M485.66154,337.58473v-159.36979h4.67046v159.36979z"/><path d="M420.56064,200.61913v-6.26794h88.89787v6.26794z"/><path d="M420.99397,245.33857v-6.26794h88.89787v6.26794z"/><path d="M422.03619,288.31692v-6.26794h88.89787v6.26794z"/><path d="M421.55618,332.68814v-6.26794h88.89787v6.26794z"/></g><g fill="#000000" stroke="none" stroke-width="0"><path d="M438.67064,151.97255v-143.45525h4.71318v143.45525z"/><path d="M462.76455,151.47834v-143.45524h4.71318v143.45525z"/><path d="M486.24401,151.92449v-143.45525h4.71317v143.45525z"/><path d="M420.54778,28.63617v-5.64203h89.71083v5.64203z"/><path d="M420.98507,68.88996v-5.64203h89.71082v5.64203z"/><path d="M422.03682,107.57653v-5.64203h89.71083v5.64203z"/><path d="M421.55242,147.51687v-5.64203h89.71083v5.64203z"/></g><path d="M389.96534,152.09301v-143.28961h4.67046v143.28962z" fill="#000000" stroke="none" stroke-width="0"/><path d="M370.60976,151.91745v-143.28961h4.67046v143.28962z" fill="#000000" stroke="none" stroke-width="0"/><g fill="#bababa" stroke="none" stroke-width="0"><path d="M144.44119,194.35957v-12.31112h78.65435v12.31112z"/><path d="M144.73073,217.21949v-12.31112h78.65434v12.31112z"/><path d="M145.70422,239.39546v-12.31111h78.65434v12.31111z"/><path d="M145.99377,263.62328v-12.31111h78.65434v12.31111z"/><path d="M144.91541,172.26341v-12.31111h78.65434v12.31112z"/></g><path d="M145.48341,306.82857v-12.31112h78.65435v12.31112z" fill="#bababa" stroke="none" stroke-width="0"/><path d="M145.77295,329.68849v-12.31112h78.65434v12.31112z" fill="#bababa" stroke="none" stroke-width="0"/><path d="M145.95763,284.73241v-12.31111h78.65434v12.31112z" fill="#bababa" stroke="none" stroke-width="0"/><path d="M11.13343,117.54005v-97.86309h205.65472v97.86309z" fill="#326e84" stroke="none" stroke-width="NaN"/><path d="M0.03893,153.16432v-36.4935h42.16384v36.49351z" fill="#2f2100" stroke="none" stroke-width="0"/><path d="M76.58345,153.21572v-36.4935h55.86386v36.49351z" fill="#2f2100" stroke="none" stroke-width="0"/><path d="M21.30339,128.15866v-11.50463h70.78165v11.50463z" fill="#2f2100" stroke="none" stroke-width="0"/><g><path d="M35.94387,122.23308v-31.73948h32.77286v31.73949z" fill="#5f5f5f" stroke="none" stroke-width="0"/><path d="M68.64337,122.23063v-31.73948l12.41702,3.66224v23.95721z" fill="#5f5f5f" stroke="none" stroke-width="0"/><path d="M37.63182,116.77444v-24.30369h28.494v24.30369z" fill="#00d7ff" stroke="#afafaf" stroke-width="1"/><path d="M40.36705,119.65097c0,0.87452 -0.72095,1.58345 -1.61028,1.58345c-0.88934,0 -1.61029,-0.70893 -1.61029,-1.58345c0,-0.87452 0.72095,-1.58346 1.61029,-1.58346c0.88934,0 1.61028,0.70893 1.61028,1.58346z" fill="#ff0000" stroke="#000000" stroke-width="0"/></g><g fill="#9a9a9a" stroke="none" stroke-width="0"><path d="M11.17227,136.71355v-8.50734h27.18037v8.50734z"/><path d="M11.25445,154.85127v-18.99119h6.7951v18.99119z"/><path d="M31.52778,154.15688v-18.9912h6.7951v18.9912z"/><path d="M11.22469,128.41772v-23.65069h8.73656v23.65069z"/></g><path d="M-1.10859,338.48564v-31.76284h97.49372v31.76284z" fill="#2f2100" stroke="none" stroke-width="0"/><path d="M-0.65003,306.77567l14.94891,-41.60262l48.2948,-0.56768l31.60085,41.98108z" fill-opacity="0.31373" fill="#00d7ff" stroke="none" stroke-width="0"/><path d="M-0.56993,306.09887l0.38735,-41.22417l14.35084,0.56768l-0.12574,0.72967z" fill-opacity="0.31373" fill="#00c2e4" stroke="none" stroke-width="0"/><path d="M105.40049,120.09574l-7.3302,-8.98073l2.07692,-1.69522l7.3302,8.98073z" fill="#5f3200" stroke="none" stroke-width="0"/><path d="M89.30281,119.73531v-16.19749h11.16437v16.19749z" fill="#f5cd6f" stroke="#5f3200" stroke-width="2"/><g stroke="none" stroke-width="0"><path d="M90.3205,118.68862v-3.3855h9.09399v3.3855z" fill="#ff6d00"/><path d="M91.77074,115.89733v-5.86017h5.88649v5.86017z" fill="#00ff46"/></g></g></g></svg>