<svg version="1.1" xmlns="http://www.w3.org/2000/svg" xmlns:xlink="http://www.w3.org/1999/xlink" width="711.66685" height="444.50085" viewBox="0,0,711.66685,444.50085"><g transform="translate(207.82429,57.83036)"><g stroke="none" stroke-width="0" stroke-miterlimit="10"><path d="M-6.76318,374.33525v-414.11475h510.60574v414.11475z" fill="#656565"/><path d="M-6.36464,265.5372v-36.58533h495.06951v36.58533z" fill-opacity="0.44314" fill="#b9b9b9"/><path d="M380.54498,134.10616v-38.31885h105.06557v38.31885z" fill-opacity="0.17647" fill="#bababa"/><path d="M386.90887,265.73524v-36.65188h81.60675v36.65188z" fill-opacity="0.17647" fill="#bababa"/><path d="M10.04614,266.08862v-36.65188h88.97173v36.65188z" fill-opacity="0.17647" fill="#bababa"/><path d="M-3.88056,10.81723v-68.64758h504.41045v68.64758z" fill-opacity="0.44314" fill="#ff7b00"/><path d="M-10.10785,133.30056v-36.58532c0,0 294.42822,0 383.96209,0c48.16313,0 111.10742,0 111.10742,0v36.58532z" fill-opacity="0.44314" fill="#b9b9b9"/><path d="M-207.82429,160.27212v-1.55683h1.55682v1.55683z" fill="#bababa"/><path d="M385.36495,100.16152v-9.10141h89.51728v9.10141z" fill="#bababa"/><path d="M386.1602,134.28208v-14.0114h89.51729v14.0114z" fill="#bababa"/><path d="M386.76251,171.05056v-14.0114h89.51728v14.0114z" fill="#bababa"/><path d="M387.09204,199.40294v-14.0114h89.51729v14.0114z" fill="#bababa"/><path d="M385.86475,223.86322v-14.0114h89.51728v14.0114z" fill="#bababa"/><g fill="#bababa"><path d=""/><path d=""/><path d=""/><path d=""/><path d=""/></g><path d="M14.29327,278.93787v-12.31112h78.65435v12.31112z" fill="#bababa"/><path d="M14.58281,301.79778v-12.31112h78.65434v12.31112z" fill="#bababa"/><path d="M15.5563,323.97377v-12.31111h78.65434v12.31111z" fill="#bababa"/><path d="M15.84585,348.20156v-12.31111h78.65434v12.31111z" fill="#bababa"/><path d="M14.76749,256.84173v-12.31111h78.65434v12.31112z" fill="#bababa"/><path d="M-9.44878,386.67049v-36.58533h495.06951v36.58533z" fill-opacity="0.44314" fill="#b9b9b9"/><path d="M186.02327,275.36699v-12.31111h78.65435v12.31111z" fill="#bababa"/><path d="M186.31282,298.22691v-12.31112h78.65434v12.31112z" fill="#bababa"/><path d="M187.28631,320.40288v-12.31111h78.65435v12.31111z" fill="#bababa"/><path d="M187.57585,344.63074v-12.31111h78.65434v12.31111z" fill="#bababa"/><path d="M186.4975,253.27087v-12.31111h78.65435v12.31112z" fill="#bababa"/><g fill="#bababa"><path d="M387.9613,275.69651v-12.31112h78.65434v12.31112z"/><path d="M388.25084,298.55647v-12.31112h78.65435v12.31112z"/><path d="M389.22433,320.73244v-12.31111h78.65434v12.31111z"/><path d="M389.51388,344.96025v-12.31111h78.65435v12.31111z"/><path d="M388.43552,253.6004v-12.31111h78.65434v12.31112z"/></g><path d="M331.28497,239.91747l5.8038,-0.02105l0.19024,117.6062l-5.8038,0.02105z" fill="#8a8a8a"/><path d="M165.03452,231.68446l5.80381,-0.02105l0.19024,117.6062l-5.8038,0.02105z" fill="#8a8a8a"/><path d="M385.97745,115.55051v-11.28363h89.51729v11.28363z" fill="#bababa"/><path d="M186.31474,233.72095v-12.31111h78.65435v12.31112z" fill="#bababa"/><path d="M14.82811,232.99263v-24.91614h78.65435v24.91617z" fill="#bababa"/><path d="M182.59899,265.64432v-36.65188h88.97173v36.65188z" fill-opacity="0.17647" fill="#bababa"/><path d="M386.30697,152.04621v-14.0114h89.51728v14.0114z" fill="#bababa"/></g></g></svg>